<svg xmlns="http://www.w3.org/2000/svg" viewBox="0 0 24 32"><path d="M12 0C5.38 0 0 5.373 0 11.974c0 2.173.595 4.26 1.66 6.065 1.19 2.01 9.747 13.6 9.747 13.6.113.22.347.36.593.36.247 0 .474-.14.593-.36 0 0 8.56-11.593 9.744-13.602C23.404 16.23 24 14.142 24 11.974 24 5.374 18.612 0 12 0z" fill="#FF4747"/><linearGradient id="a" gradientUnits="userSpaceOnUse" x1="11.999" y1="17.6" x2="11.999" y2="22.133"><stop offset="0" stop-color="#FFDEBE"/><stop offset="1" stop-color="#FFECE1"/></linearGradient><path d="M12 22.133c3.525 0 6.627-1.802 8.442-4.533H3.557c1.816 2.73 4.918 4.533 8.443 4.533z" fill-rule="evenodd" clip-rule="evenodd" fill="url(#a)"/><path d="M20.442 17.6c1.066-1.604 1.69-3.528 1.69-5.6 0-5.597-4.536-10.133-10.132-10.133C6.403 1.867 1.867 6.403 1.867 12c0 2.07.624 3.995 1.69 5.6h16.885z" fill-rule="evenodd" clip-rule="evenodd" fill="#FFF"/><path fill-rule="evenodd" clip-rule="evenodd" fill="#FFDDBC" d="M7.2 13.066h5.857V16.8H7.2v-3.734"/><linearGradient id="b" gradientUnits="userSpaceOnUse" x1="15.2" y1="13.066" x2="15.2" y2="16.8"><stop offset="0" stop-color="#FED7B6"/><stop offset="1" stop-color="#F6956D"/></linearGradient><path fill="url(#b)" d="M13.067 13.066h4.267V16.8h-4.267z"/><path fill-rule="evenodd" clip-rule="evenodd" fill="#FF4747" d="M7.2 12h10.133v1.066H7.2V12"/><linearGradient id="c" gradientUnits="userSpaceOnUse" x1="20" y1="8.408" x2="13.127" y2="8.408"><stop offset="0" stop-color="#FE4646"/><stop offset="1" stop-color="#E2021B"/></linearGradient><path d="M16.86 9.03c-.488-.197-.923-.558-1.07-1.056l-.8-2.373h-.004l-1.918 5.614h7v-.865L16.86 9.03z" fill-rule="evenodd" clip-rule="evenodd" fill="url(#c)"/><path d="M13.067 11.214L14.985 5.6h.003-5.615L8.57 7.974c-.526.877-.687.93-1.07 1.056l-3.503 1.295.003.89" fill="#FF4747"/></svg>